<?xml version="1.0" ?>
<!DOCTYPE svg  PUBLIC '-//W3C//DTD SVG 1.1//EN'  'http://www.w3.org/Graphics/SVG/1.1/DTD/svg11.dtd'>
<svg width="2019px" height="1459px" viewBox="0 0 2019 1459" enable-background="new 0 0 512 512" id="wolf" version="1.1" xml:space="preserve" xmlns="http://www.w3.org/2000/svg" xmlns:xlink="http://www.w3.org/1999/xlink">
<path fill-rule="evenodd"  stroke="rgb(0, 0, 0)" stroke-width="50px" stroke-linecap="butt" stroke-linejoin="miter" fill="none"
 d="M1714.000,463.1000 C1416.943,475.168 1184.143,481.008 981.000,457.000 C777.857,432.992 569.000,254.1000 569.000,254.1000 L577.000,83.1000 L454.1000,194.000 L302.1000,252.000 L293.1000,315.1000 L66.000,415.1000 L148.1000,516.1000 L384.1000,458.000 C384.1000,458.000 441.590,754.090 666.1000,791.000 C666.921,791.345 662.000,1051.000 662.000,1051.000 L533.1000,1384.000 L696.1000,1384.000 L786.000,1062.000 C786.000,1062.000 754.173,900.540 844.000,787.000 C851.187,796.303 1059.070,934.543 1441.000,804.1000 C1492.371,807.234 1554.1000,1107.000 1554.1000,1107.000 L1489.1000,1370.000 L1648.1000,1376.1000 L1701.1000,1087.000 C1701.1000,1087.000 1563.908,907.840 1671.000,793.1000 C1670.884,791.836 1677.1000,590.1000 1677.1000,590.1000 C1677.1000,590.1000 1911.309,636.336 1838.000,894.1000 C1840.631,896.810 1811.065,968.783 1856.000,973.000 C1900.935,977.217 2089.229,609.178 1714.000,463.1000 Z"/>
</svg>
