<svg xmlns="http://www.w3.org/2000/svg" viewBox="0 0 32 32">
  <!-- Gear outer -->
  <path d="M16 4 L18 4 L19 7 L22 8 L24 6 L26 8 L24 10 L25 13 L28 14 L28 18 L25 19 L24 22 L26 24 L24 26 L22 24 L19 25 L18 28 L14 28 L13 25 L10 24 L8 26 L6 24 L8 22 L7 19 L4 18 L4 14 L7 13 L8 10 L6 8 L8 6 L10 8 L13 7 L14 4 Z" fill="#c0c0c0" stroke="#000" stroke-width="1"/>
  
  <!-- Gear inner circle -->
  <circle cx="16" cy="16" r="5" fill="#808080" stroke="#000" stroke-width="1"/>
  <circle cx="16" cy="16" r="3" fill="#c0c0c0"/>
</svg>



